<?xml version="1.0" encoding="UTF-8"?>
<!DOCTYPE svg PUBLIC "-//W3C//DTD SVG 1.1//EN" "http://www.w3.org/Graphics/SVG/1.1/DTD/svg11.dtd">
<svg xmlns="http://www.w3.org/2000/svg" version="1.1" width="400px" height="400px" style="shape-rendering:geometricPrecision; text-rendering:geometricPrecision; image-rendering:optimizeQuality; fill-rule:evenodd; clip-rule:evenodd" xmlns:xlink="http://www.w3.org/1999/xlink">
<g><path style="opacity:1" fill="#34485d" d="M 383.5,318.5 C 380.458,335.376 370.458,345.543 353.5,349C 250.833,349.667 148.167,349.667 45.5,349C 29.4991,345.833 19.4991,336.333 15.5,320.5C 15.3333,233.166 15.5,145.833 16,58.5C 20.4649,43.7023 30.2982,34.8689 45.5,32C 148.167,31.3333 250.833,31.3333 353.5,32C 369.591,35.0921 379.424,44.5921 383,60.5C 383.5,146.499 383.667,232.499 383.5,318.5 Z"/></g>
<g><path style="opacity:1" fill="#e8edee" d="M 67.5,179.5 C 66.5104,173.69 66.1771,167.69 66.5,161.5C 82.8058,152.012 99.1392,142.512 115.5,133C 99.6651,123.248 83.6651,113.748 67.5,104.5C 66.1667,98.1667 66.1667,91.8333 67.5,85.5C 94.9627,101.134 122.296,116.967 149.5,133C 122.021,148.328 94.6879,163.828 67.5,179.5 Z"/></g>
<g><path style="opacity:1" fill="#85939f" d="M 66.5,161.5 C 66.1771,167.69 66.5104,173.69 67.5,179.5C 67.44,180.043 67.1067,180.376 66.5,180.5C 65.1826,174.012 65.1826,167.678 66.5,161.5 Z"/></g>
<g><path style="opacity:1" fill="#ebeff0" d="M 149.5,166.5 C 177.167,166.5 204.833,166.5 232.5,166.5C 232.5,171.833 232.5,177.167 232.5,182.5C 204.833,182.5 177.167,182.5 149.5,182.5C 149.5,177.167 149.5,171.833 149.5,166.5 Z"/></g>
<g><path style="opacity:0.968" fill="#2b3d4f" d="M 383.5,318.5 C 384.322,328.782 383.156,338.782 380,348.5C 374.842,357.322 367.342,363.156 357.5,366C 252.167,366.667 146.833,366.667 41.5,366C 20.3599,358.243 11.6932,343.077 15.5,320.5C 19.4991,336.333 29.4991,345.833 45.5,349C 148.167,349.667 250.833,349.667 353.5,349C 370.458,345.543 380.458,335.376 383.5,318.5 Z"/></g>
</svg>
