<?xml version="1.0" encoding="UTF-8"?>
<!DOCTYPE svg PUBLIC "-//W3C//DTD SVG 1.1//EN" "http://www.w3.org/Graphics/SVG/1.1/DTD/svg11.dtd">
<svg xmlns="http://www.w3.org/2000/svg" version="1.1" width="612px" height="612px" style="shape-rendering:geometricPrecision; text-rendering:geometricPrecision; image-rendering:optimizeQuality; fill-rule:evenodd; clip-rule:evenodd" xmlns:xlink="http://www.w3.org/1999/xlink">
<g><path style="opacity:1" fill="#fefefe" d="M -0.5,-0.5 C 203.5,-0.5 407.5,-0.5 611.5,-0.5C 611.5,203.5 611.5,407.5 611.5,611.5C 407.5,611.5 203.5,611.5 -0.5,611.5C -0.5,407.5 -0.5,203.5 -0.5,-0.5 Z"/></g>
<g><path style="opacity:1" fill="#42c5e6" d="M 447.5,123.5 C 451.298,129.711 449.631,132.211 442.5,131C 406.524,102.526 365.524,86.526 319.5,83C 258.377,79.8707 205.044,98.0374 159.5,137.5C 153.637,142.333 150.804,141 151,133.5C 208.576,82.7846 275.409,64.618 351.5,79C 386.975,86.6435 418.975,101.477 447.5,123.5 Z"/></g>
<g><path style="opacity:1" fill="#fbfcfc" d="M 447.5,123.5 C 449.017,123.511 450.184,124.177 451,125.5C 451.27,128.224 451.77,130.891 452.5,133.5C 452.023,134.478 451.357,135.311 450.5,136C 452.256,136.202 453.922,136.702 455.5,137.5C 452.879,137.599 450.212,137.933 447.5,138.5C 449.291,139.17 450.958,139.837 452.5,140.5C 444.395,139.772 440.895,143.438 442,151.5C 444.623,155.903 448.457,157.569 453.5,156.5C 455.564,156.762 456.897,157.929 457.5,160C 457.167,160.167 456.833,160.333 456.5,160.5C 453.801,159.436 451.134,158.436 448.5,157.5C 447.5,157.667 446.5,157.833 445.5,158C 449.511,158.166 450.011,159 447,160.5C 446,159.833 445,159.167 444,158.5C 441.047,159.324 438.547,160.657 436.5,162.5C 379.488,113.928 314.822,100.428 242.5,122C 229.798,126.851 217.464,132.518 205.5,139C 201.279,141.937 197.279,145.104 193.5,148.5C 194.002,149.521 194.668,149.688 195.5,149C 252.315,111.317 312.982,104.317 377.5,128C 391.953,134.39 405.619,142.056 418.5,151C 428.67,158.679 438.337,166.845 447.5,175.5C 447.709,176.922 448.209,178.255 449,179.5C 484.794,220.27 500.461,267.937 496,322.5C 494.43,341.317 490.097,359.317 483,376.5C 482.219,377.944 482.386,379.277 483.5,380.5C 509.221,315.53 503.221,253.863 465.5,195.5C 467.126,193.297 469.292,191.63 472,190.5C 474.134,188.422 473.968,186.588 471.5,185C 472,184.5 472.5,184 473,183.5C 473.612,186.115 475.112,187.781 477.5,188.5C 515.996,247.402 523.83,310.402 501,377.5C 469.644,453.841 413.144,498.674 331.5,512C 295.513,516.314 260.68,511.814 227,498.5C 223.88,499.593 223.713,501.093 226.5,503C 267.801,518.576 310.135,521.743 353.5,512.5C 351.9,513.644 350.233,514.811 348.5,516C 350.5,516.333 352.5,516.667 354.5,517C 353.552,517.483 352.552,517.649 351.5,517.5C 351.5,518.5 351.5,519.5 351.5,520.5C 355.182,520.335 358.848,520.501 362.5,521C 358.551,521.807 358.551,522.307 362.5,522.5C 270.275,543.257 193.108,518.257 131,447.5C 85.162,388.003 70.8286,321.336 88,247.5C 90.8565,236.625 94.6898,226.125 99.5,216C 99.2568,215.098 98.9234,214.265 98.5,213.5C 101.487,213.422 102.153,214.589 100.5,217C 102.429,218.694 103.429,220.861 103.5,223.5C 104.5,223.5 105.5,223.5 106.5,223.5C 106.575,226.206 106.908,228.873 107.5,231.5C 105.851,236.764 104.517,242.097 103.5,247.5C 107.678,236.974 111.678,226.308 115.5,215.5C 117.692,213.295 119.026,210.629 119.5,207.5C 119.328,206.508 119.662,205.842 120.5,205.5C 124.251,201.005 127.251,196.005 129.5,190.5C 144.801,169.233 162.801,150.567 183.5,134.5C 182.078,134.709 180.745,135.209 179.5,136C 175.625,139.381 171.625,142.547 167.5,145.5C 166.093,143.386 164.093,141.886 161.5,141C 162.337,139.989 162.67,138.822 162.5,137.5C 161.5,137.5 160.5,137.5 159.5,137.5C 205.044,98.0374 258.377,79.8707 319.5,83C 365.524,86.526 406.524,102.526 442.5,131C 449.631,132.211 451.298,129.711 447.5,123.5 Z"/></g>
<g><path style="opacity:1" fill="#8086b7" d="M 247.5,103.5 C 251.863,101.447 256.53,99.9469 261.5,99C 276.016,95.8622 290.683,94.5289 305.5,95C 295.576,96.244 285.576,97.244 275.5,98C 266.096,99.5181 256.763,101.351 247.5,103.5 Z"/></g>
<g><path style="opacity:1" fill="#7f84b4" d="M 247.5,103.5 C 236.23,107.815 224.897,112.149 213.5,116.5C 223.991,110.221 235.325,105.888 247.5,103.5 Z"/></g>
<g><path style="opacity:1" fill="#63d0e9" d="M 436.5,162.5 C 440.565,166.559 444.232,170.893 447.5,175.5C 438.337,166.845 428.67,158.679 418.5,151C 405.619,142.056 391.953,134.39 377.5,128C 312.982,104.317 252.315,111.317 195.5,149C 194.668,149.688 194.002,149.521 193.5,148.5C 197.279,145.104 201.279,141.937 205.5,139C 217.464,132.518 229.798,126.851 242.5,122C 314.822,100.428 379.488,113.928 436.5,162.5 Z"/></g>
<g><path style="opacity:1" fill="#9ba4ca" d="M 213.5,116.5 C 212.077,118.711 210.077,119.545 207.5,119C 209.217,117.441 211.217,116.608 213.5,116.5 Z"/></g>
<g><path style="opacity:1" fill="#f1f1f1" d="M 287.5,124.5 C 353.633,120.328 407.467,143.328 449,193.5C 484.205,240.164 494.871,293.497 481,353.5C 474.368,377.426 463.202,398.926 447.5,418C 448.833,418.333 450.167,418.667 451.5,419C 445.552,419.285 442.719,422.451 443,428.5C 442.468,421.925 441.634,421.925 440.5,428.5C 389.015,480.1 327.348,497.433 255.5,480.5C 189.362,459.49 146.862,414.49 128,345.5C 115.383,278.4 132.883,220.9 180.5,173C 181.448,172.517 182.448,172.351 183.5,172.5C 183.281,171.325 183.614,170.325 184.5,169.5C 213.715,143.942 248.048,128.942 287.5,124.5 Z"/></g>
<g><path style="opacity:1" fill="#7e80b5" d="M 183.5,134.5 C 186.667,131.223 190.334,128.39 194.5,126C 197.893,123.466 201.559,121.799 205.5,121C 198.281,125.725 190.948,130.225 183.5,134.5 Z"/></g>
<g><path style="opacity:1" fill="#46c5e7" d="M 452.5,140.5 C 453.5,140.5 454.5,140.5 455.5,140.5C 459.851,146.324 459.185,151.657 453.5,156.5C 448.457,157.569 444.623,155.903 442,151.5C 440.895,143.438 444.395,139.772 452.5,140.5 Z"/></g>
<g><path style="opacity:1" fill="#858ab2" d="M 183.5,134.5 C 162.801,150.567 144.801,169.233 129.5,190.5C 139.949,173.71 152.616,158.71 167.5,145.5C 171.625,142.547 175.625,139.381 179.5,136C 180.745,135.209 182.078,134.709 183.5,134.5 Z"/></g>
<g><path style="opacity:1" fill="#4cc6e5" d="M 122.5,159.5 C 128.705,159.037 130.705,161.704 128.5,167.5C 120.835,169.201 118.835,166.535 122.5,159.5 Z"/></g>
<g><path style="opacity:1" fill="#a4def6" d="M 338.5,166.5 C 314.788,166.187 291.122,166.52 267.5,167.5C 267.611,166.883 267.944,166.383 268.5,166C 292.004,165.17 315.337,165.337 338.5,166.5 Z"/></g>
<g><path style="opacity:1" fill="#7d82b2" d="M 129.5,190.5 C 127.251,196.005 124.251,201.005 120.5,205.5C 122.749,199.995 125.749,194.995 129.5,190.5 Z"/></g>
<g><path style="opacity:1" fill="#a4dfee" d="M 268.5,211.5 C 279.833,211.5 291.167,211.5 302.5,211.5C 302.5,217.167 302.5,222.833 302.5,228.5C 301.167,228.5 299.833,228.5 298.5,228.5C 299.209,227.596 300.209,227.263 301.5,227.5C 301.5,222.5 301.5,217.5 301.5,212.5C 290.321,212.828 279.321,212.495 268.5,211.5 Z"/></g>
<g><path style="opacity:1" fill="#868ab8" d="M 119.5,207.5 C 119.026,210.629 117.692,213.295 115.5,215.5C 115.794,212.246 117.127,209.579 119.5,207.5 Z"/></g>
<g><path style="opacity:1" fill="#8187b8" d="M 115.5,215.5 C 111.678,226.308 107.678,236.974 103.5,247.5C 104.517,242.097 105.851,236.764 107.5,231.5C 109.639,225.888 112.306,220.554 115.5,215.5 Z"/></g>
<g><path style="opacity:1" fill="#4dc6e7" d="M 338.5,166.5 C 342.942,167.469 345.775,170.136 347,174.5C 347.74,185.527 347.574,196.527 346.5,207.5C 343.747,208.714 341.08,210.214 338.5,212C 327.839,212.5 317.172,212.667 306.5,212.5C 306.5,217.833 306.5,223.167 306.5,228.5C 328.493,231.16 340.826,243.493 343.5,265.5C 359.557,265.062 375.557,265.562 391.5,267C 398.684,270.341 403.017,275.841 404.5,283.5C 404.5,296.833 404.5,310.167 404.5,323.5C 415.551,323.211 426.551,323.545 437.5,324.5C 439.134,325.972 440.634,327.638 442,329.5C 442.667,340.167 442.667,350.833 442,361.5C 440.833,365.333 438.333,367.833 434.5,369C 431.183,369.498 427.85,369.665 424.5,369.5C 424.5,375.833 424.5,382.167 424.5,388.5C 423.508,381.018 423.175,373.352 423.5,365.5C 427.182,365.665 430.848,365.499 434.5,365C 435.056,364.617 435.389,364.117 435.5,363.5C 436.558,362.4 437.392,361.066 438,359.5C 438.807,349.786 438.641,340.119 437.5,330.5C 436.5,329.667 435.5,328.833 434.5,328C 411.167,327.333 387.833,327.333 364.5,328C 363.667,328.833 362.833,329.667 362,330.5C 361.333,340.5 361.333,350.5 362,360.5C 362.48,362.133 363.313,363.466 364.5,364.5C 367.962,365.482 371.629,365.815 375.5,365.5C 375.5,366.833 375.5,368.167 375.5,369.5C 371.116,369.826 366.783,369.492 362.5,368.5C 360.367,366.909 358.701,364.909 357.5,362.5C 356.334,351.849 356.168,341.182 357,330.5C 358.252,328.999 359.252,327.332 360,325.5C 360.671,324.748 361.504,324.414 362.5,324.5C 375.265,323.851 387.932,323.185 400.5,322.5C 400.667,309.163 400.5,295.829 400,282.5C 397.369,276.488 392.869,272.321 386.5,270C 372.171,269.5 357.837,269.333 343.5,269.5C 341.832,287.993 332.166,300.16 314.5,306C 311.854,306.497 309.187,306.664 306.5,306.5C 306.5,312.167 306.5,317.833 306.5,323.5C 317.505,323.333 328.505,323.5 339.5,324C 341.584,324.697 343.251,325.864 344.5,327.5C 344.66,329.199 344.494,330.866 344,332.5C 343.617,331.944 343.117,331.611 342.5,331.5C 341.548,330.548 340.548,329.548 339.5,328.5C 315.84,327.334 292.174,327.167 268.5,328C 266.35,330.041 265.35,332.541 265.5,335.5C 264.833,343.343 264.167,351.343 263.5,359.5C 262.502,349.856 262.168,340.19 262.5,330.5C 263.088,326.915 265.088,324.581 268.5,323.5C 279.833,323.5 291.167,323.5 302.5,323.5C 302.5,317.833 302.5,312.167 302.5,306.5C 300.5,306.5 298.5,306.5 296.5,306.5C 278.01,301.558 267.344,289.558 264.5,270.5C 250.798,269.094 237.132,269.26 223.5,271C 219.203,273.958 216.037,277.791 214,282.5C 213.5,296.163 213.333,309.829 213.5,323.5C 224.838,323.333 236.172,323.5 247.5,324C 250.333,325.5 252.5,327.667 254,330.5C 254.667,340.833 254.667,351.167 254,361.5C 252.707,364.835 250.54,367.168 247.5,368.5C 243.5,368.5 239.5,368.5 235.5,368.5C 235.5,367.5 235.5,366.5 235.5,365.5C 233.901,365.232 232.568,365.566 231.5,366.5C 218.167,366.5 204.833,366.5 191.5,366.5C 190.432,365.566 189.099,365.232 187.5,365.5C 187.825,373.352 187.492,381.018 186.5,388.5C 186.5,382.167 186.5,375.833 186.5,369.5C 181.19,369.959 176.19,368.959 171.5,366.5C 170.194,365.088 169.36,363.421 169,361.5C 168.333,350.833 168.333,340.167 169,329.5C 170.406,326.591 172.572,324.591 175.5,323.5C 186.833,323.5 198.167,323.5 209.5,323.5C 209.5,309.833 209.5,296.167 209.5,282.5C 212.103,276.706 215.77,271.539 220.5,267C 235.134,265.919 249.8,265.086 264.5,264.5C 267.23,244.435 278.563,232.435 298.5,228.5C 299.833,228.5 301.167,228.5 302.5,228.5C 302.5,222.833 302.5,217.167 302.5,211.5C 291.167,211.5 279.833,211.5 268.5,211.5C 265.151,210.316 262.985,207.983 262,204.5C 261.333,194.167 261.333,183.833 262,173.5C 263.044,172.377 263.71,171.044 264,169.5C 264.816,168.177 265.983,167.511 267.5,167.5C 291.122,166.52 314.788,166.187 338.5,166.5 Z"/></g>
<g><path style="opacity:1" fill="#a0dfec" d="M 342.5,175.5 C 343.774,186.026 343.774,196.693 342.5,207.5C 341.5,207.5 340.5,207.5 339.5,207.5C 340.504,206.317 341.338,204.984 342,203.5C 342.5,194.173 342.666,184.839 342.5,175.5 Z"/></g>
<g><path style="opacity:1" fill="#f9fafb" d="M 342.5,175.5 C 342.666,184.839 342.5,194.173 342,203.5C 341.338,204.984 340.504,206.317 339.5,207.5C 315.824,207.833 292.157,207.5 268.5,206.5C 267.855,205.354 267.022,204.354 266,203.5C 265.074,193.093 265.408,182.759 267,172.5C 267.75,171.874 268.584,171.374 269.5,171C 292.5,170.333 315.5,170.333 338.5,171C 340.751,171.748 342.084,173.248 342.5,175.5 Z"/></g>
<g><path style="opacity:1" fill="#394a9a" d="M 300.5,180.5 C 312.701,180.511 315.701,185.677 309.5,196C 300.551,199.043 296.051,195.876 296,186.5C 297.332,184.34 298.832,182.34 300.5,180.5 Z"/></g>
<g><path style="opacity:1" fill="#f1f2f7" d="M 301.5,184.5 C 308.486,184.331 310.153,187.164 306.5,193C 299.868,193.086 298.201,190.253 301.5,184.5 Z"/></g>
<g><path style="opacity:1" fill="#374899" d="M 319.5,180.5 C 324.533,179.7 328.366,181.367 331,185.5C 332.218,194.282 328.384,198.116 319.5,197C 312.856,191.375 312.856,185.875 319.5,180.5 Z"/></g>
<g><path style="opacity:1" fill="#edf0f6" d="M 321.5,184.5 C 324.916,183.866 326.916,185.2 327.5,188.5C 327.167,192.989 324.833,194.489 320.5,193C 317.83,189.838 318.163,187.005 321.5,184.5 Z"/></g>
<g><path style="opacity:1" fill="#3c4c9b" d="M 281.5,180.5 C 293.701,180.511 296.701,185.677 290.5,196C 281.099,198.94 276.599,195.44 277,185.5C 278.517,183.76 280.017,182.094 281.5,180.5 Z"/></g>
<g><path style="opacity:1" fill="#eaecf3" d="M 282.5,184.5 C 289.486,184.331 291.153,187.164 287.5,193C 280.868,193.086 279.201,190.253 282.5,184.5 Z"/></g>
<g><path style="opacity:1" fill="#f8fafb" d="M 295.5,232.5 C 324.563,231.069 339.063,244.736 339,273.5C 332.762,295.381 318.262,304.881 295.5,302C 275.325,294.499 266.825,279.999 270,258.5C 270.97,255.256 272.137,252.09 273.5,249C 279.615,241.786 286.949,236.286 295.5,232.5 Z"/></g>
<g><path style="opacity:1" fill="#63cfe8" d="M 447.5,175.5 C 449.371,175.859 450.871,176.859 452,178.5C 456.519,184.236 461.019,189.903 465.5,195.5C 503.221,253.863 509.221,315.53 483.5,380.5C 482.386,379.277 482.219,377.944 483,376.5C 490.097,359.317 494.43,341.317 496,322.5C 500.461,267.937 484.794,220.27 449,179.5C 448.209,178.255 447.709,176.922 447.5,175.5 Z"/></g>
<g><path style="opacity:1" fill="#8a8ebf" d="M 528.5,263.5 C 526.225,257.399 524.725,251.066 524,244.5C 526.829,250.472 528.329,256.805 528.5,263.5 Z"/></g>
<g><path style="opacity:1" fill="#767db1" d="M 103.5,247.5 C 102.532,253.032 101.199,258.366 99.5,263.5C 99.7066,257.775 101.04,252.441 103.5,247.5 Z"/></g>
<g><path style="opacity:1" fill="#404f9f" d="M 276.5,260.5 C 294.833,260.5 313.167,260.5 331.5,260.5C 331.67,261.822 331.337,262.989 330.5,264C 312.833,264.667 295.167,264.667 277.5,264C 276.663,262.989 276.33,261.822 276.5,260.5 Z"/></g>
<g><path style="opacity:1" fill="#34499e" d="M 276.5,267.5 C 294.833,267.5 313.167,267.5 331.5,267.5C 331.5,268.833 331.5,270.167 331.5,271.5C 313.497,271.667 295.497,271.5 277.5,271C 276.663,269.989 276.33,268.822 276.5,267.5 Z"/></g>
<g><path style="opacity:1" fill="#3b499d" d="M 277.5,274.5 C 295.5,274.5 313.5,274.5 331.5,274.5C 331.5,275.833 331.5,277.167 331.5,278.5C 313.167,278.5 294.833,278.5 276.5,278.5C 276.433,277.041 276.766,275.708 277.5,274.5 Z"/></g>
<g><path style="opacity:1" fill="#8b92c0" d="M 528.5,263.5 C 530.747,271.209 532.08,279.209 532.5,287.5C 532.167,287.5 531.833,287.5 531.5,287.5C 529.86,279.717 528.86,271.717 528.5,263.5 Z"/></g>
<g><path style="opacity:1" fill="#6e73ba" d="M 531.5,287.5 C 531.833,287.5 532.167,287.5 532.5,287.5C 532.882,303.206 532.382,318.872 531,334.5C 531.187,318.845 531.354,303.178 531.5,287.5 Z"/></g>
<g><path style="opacity:1" fill="#8b91bf" d="M 99.5,263.5 C 96.8274,284.724 95.8274,306.057 96.5,327.5C 93.7568,306.921 94.2568,286.254 98,265.5C 98.2784,264.584 98.7784,263.918 99.5,263.5 Z"/></g>
<g><path style="opacity:1" fill="#bce7f1" d="M 209.5,282.5 C 209.5,296.167 209.5,309.833 209.5,323.5C 198.167,323.5 186.833,323.5 175.5,323.5C 186.321,322.505 197.321,322.172 208.5,322.5C 208.171,308.99 208.504,295.656 209.5,282.5 Z"/></g>
<g><path style="opacity:1" fill="#b7e8f5" d="M 296.5,306.5 C 298.5,306.5 300.5,306.5 302.5,306.5C 302.5,312.167 302.5,317.833 302.5,323.5C 291.167,323.5 279.833,323.5 268.5,323.5C 279.321,322.505 290.321,322.172 301.5,322.5C 301.5,317.5 301.5,312.5 301.5,307.5C 299.585,307.784 297.919,307.451 296.5,306.5 Z"/></g>
<g><path style="opacity:1" fill="#b7ebf6" d="M 400.5,322.5 C 387.932,323.185 375.265,323.851 362.5,324.5C 374.789,322.52 387.456,321.853 400.5,322.5 Z"/></g>
<g><path style="opacity:1" fill="#b2e7f3" d="M 404.5,283.5 C 405.495,296.323 405.829,309.323 405.5,322.5C 415.839,322.334 426.172,322.5 436.5,323C 437.056,323.383 437.389,323.883 437.5,324.5C 426.551,323.545 415.551,323.211 404.5,323.5C 404.5,310.167 404.5,296.833 404.5,283.5 Z"/></g>
<g><path style="opacity:1" fill="#f9fbfb" d="M 175.5,327.5 C 198.836,327.333 222.169,327.5 245.5,328C 246.931,328.465 248.097,329.299 249,330.5C 249.667,340.5 249.667,350.5 249,360.5C 248.5,361.5 248,362.5 247.5,363.5C 223.507,364.666 199.507,364.833 175.5,364C 174.107,362.829 173.273,361.329 173,359.5C 172.168,349.816 172.335,340.149 173.5,330.5C 174.919,329.995 175.585,328.995 175.5,327.5 Z"/></g>
<g><path style="opacity:1" fill="#f9fafb" d="M 342.5,331.5 C 342.666,341.172 342.5,350.839 342,360.5C 341.5,362.333 340.333,363.5 338.5,364C 315.16,364.833 291.826,364.666 268.5,363.5C 267.469,362.3 266.635,360.966 266,359.5C 265.5,351.507 265.334,343.507 265.5,335.5C 265.35,332.541 266.35,330.041 268.5,328C 292.174,327.167 315.84,327.334 339.5,328.5C 340.548,329.548 341.548,330.548 342.5,331.5 Z"/></g>
<g><path style="opacity:1" fill="#f9fbfb" d="M 435.5,363.5 C 411.878,364.48 388.212,364.813 364.5,364.5C 363.313,363.466 362.48,362.133 362,360.5C 361.333,350.5 361.333,340.5 362,330.5C 362.833,329.667 363.667,328.833 364.5,328C 387.833,327.333 411.167,327.333 434.5,328C 435.5,328.833 436.5,329.667 437.5,330.5C 438.641,340.119 438.807,349.786 438,359.5C 437.392,361.066 436.558,362.4 435.5,363.5 Z"/></g>
<g><path style="opacity:1" fill="#61cae5" d="M 344.5,327.5 C 345.75,327.577 346.583,328.244 347,329.5C 347.909,340.892 347.576,352.225 346,363.5C 341.477,369.008 335.644,371.008 328.5,369.5C 327.03,364.243 325.696,364.243 324.5,369.5C 311.167,369.5 297.833,369.5 284.5,369.5C 284.5,369.167 284.5,368.833 284.5,368.5C 297.171,368.667 309.838,368.5 322.5,368C 322.957,367.586 323.291,367.086 323.5,366.5C 310.517,365.501 297.517,365.168 284.5,365.5C 283.167,365.5 281.833,365.5 280.5,365.5C 280.825,373.352 280.492,381.018 279.5,388.5C 279.5,382.167 279.5,375.833 279.5,369.5C 271.843,371.309 266.01,368.976 262,362.5C 261.175,351.659 261.341,340.992 262.5,330.5C 262.168,340.19 262.502,349.856 263.5,359.5C 264.167,351.343 264.833,343.343 265.5,335.5C 265.334,343.507 265.5,351.507 266,359.5C 266.635,360.966 267.469,362.3 268.5,363.5C 291.826,364.666 315.16,364.833 338.5,364C 340.333,363.5 341.5,362.333 342,360.5C 342.5,350.839 342.666,341.172 342.5,331.5C 343.117,331.611 343.617,331.944 344,332.5C 344.494,330.866 344.66,329.199 344.5,327.5 Z"/></g>
<g><path style="opacity:1" fill="#797fb5" d="M 96.5,327.5 C 98.4305,335.266 99.7639,343.266 100.5,351.5C 97.6741,343.878 96.3408,335.878 96.5,327.5 Z"/></g>
<g><path style="opacity:1" fill="#3c4b9c" d="M 281.5,337.5 C 289.983,337.148 293.817,341.148 293,349.5C 290.459,354.069 286.625,355.569 281.5,354C 274.87,348.55 274.87,343.05 281.5,337.5 Z"/></g>
<g><path style="opacity:1" fill="#3b4b9b" d="M 423.5,339.5 C 425.343,343.187 426.01,347.187 425.5,351.5C 414.738,357.027 409.904,353.694 411,341.5C 414.647,337.051 418.813,336.385 423.5,339.5 Z"/></g>
<g><path style="opacity:1" fill="#37499b" d="M 396.5,337.5 C 404.498,337 408.331,340.667 408,348.5C 403.478,355.649 398.145,356.315 392,350.5C 390.243,344.825 391.743,340.492 396.5,337.5 Z"/></g>
<g><path style="opacity:1" fill="#eff1f6" d="M 282.5,341.5 C 289.486,341.331 291.153,344.164 287.5,350C 280.413,350.558 278.746,347.724 282.5,341.5 Z"/></g>
<g><path style="opacity:1" fill="#eeeff3" d="M 416.5,341.5 C 423.448,342.05 424.781,344.883 420.5,350C 415.504,350.664 413.67,348.498 415,343.5C 415.717,342.956 416.217,342.289 416.5,341.5 Z"/></g>
<g><path style="opacity:1" fill="#edeff4" d="M 397.5,341.5 C 403.982,341.736 405.648,344.569 402.5,350C 395.421,350.527 393.754,347.694 397.5,341.5 Z"/></g>
<g><path style="opacity:1" fill="#666eac" d="M 423.5,339.5 C 425.411,339.574 426.578,340.574 427,342.5C 427.927,345.863 427.427,348.863 425.5,351.5C 426.01,347.187 425.343,343.187 423.5,339.5 Z"/></g>
<g><path style="opacity:1" fill="#35469a" d="M 300.5,337.5 C 304.986,336.862 308.653,338.196 311.5,341.5C 314.031,351.136 310.364,355.302 300.5,354C 293.88,348.564 293.88,343.064 300.5,337.5 Z"/></g>
<g><path style="opacity:1" fill="#f0f2f4" d="M 301.5,341.5 C 308.486,341.331 310.153,344.164 306.5,350C 302.229,351.513 299.895,350.013 299.5,345.5C 299.752,343.927 300.418,342.594 301.5,341.5 Z"/></g>
<g><path style="opacity:1" fill="#3a4b9d" d="M 319.5,337.5 C 328.06,337.223 331.894,341.223 331,349.5C 326.745,355.309 321.745,355.976 316,351.5C 313.443,345.759 314.609,341.093 319.5,337.5 Z"/></g>
<g><path style="opacity:1" fill="#f1f3f7" d="M 321.5,341.5 C 327.651,342.103 328.984,344.936 325.5,350C 320.141,351.143 317.974,348.976 319,343.5C 319.995,342.934 320.828,342.267 321.5,341.5 Z"/></g>
<g><path style="opacity:1" fill="#384998" d="M 377.5,337.5 C 386.465,337.287 390.132,341.453 388.5,350C 385.464,354.06 381.464,355.394 376.5,354C 370.867,347.952 371.2,342.452 377.5,337.5 Z"/></g>
<g><path style="opacity:1" fill="#eff0f6" d="M 378.5,341.5 C 385.494,341.415 387.161,344.248 383.5,350C 376.237,350.821 374.571,347.988 378.5,341.5 Z"/></g>
<g><path style="opacity:1" fill="#37499b" d="M 207.5,337.5 C 216.1,337.073 219.933,341.073 219,349.5C 214.745,355.309 209.745,355.976 204,351.5C 201.443,345.759 202.609,341.093 207.5,337.5 Z"/></g>
<g><path style="opacity:1" fill="#f2f4f6" d="M 209.5,341.5 C 215.643,342.026 216.976,344.86 213.5,350C 208.545,351.376 206.379,349.542 207,344.5C 208.045,343.627 208.878,342.627 209.5,341.5 Z"/></g>
<g><path style="opacity:1" fill="#7f8abd" d="M 222.5,342.5 C 222.368,345.57 222.701,348.57 223.5,351.5C 222.883,351.389 222.383,351.056 222,350.5C 221.199,347.633 221.366,344.966 222.5,342.5 Z"/></g>
<g><path style="opacity:1" fill="#394b9a" d="M 188.5,337.5 C 200.204,337.748 203.204,342.915 197.5,353C 188.595,356.096 184.095,352.929 184,343.5C 185.332,341.34 186.832,339.34 188.5,337.5 Z"/></g>
<g><path style="opacity:1" fill="#f0f2f6" d="M 189.5,341.5 C 196.486,341.331 198.153,344.164 194.5,350C 187.406,350.513 185.739,347.679 189.5,341.5 Z"/></g>
<g><path style="opacity:1" fill="#36479a" d="M 223.5,351.5 C 222.701,348.57 222.368,345.57 222.5,342.5C 226.975,336.247 231.975,335.914 237.5,341.5C 240.031,351.136 236.364,355.302 226.5,354C 225.058,353.623 224.058,352.79 223.5,351.5 Z"/></g>
<g><path style="opacity:1" fill="#edeff5" d="M 227.5,341.5 C 234.486,341.331 236.153,344.164 232.5,350C 225.416,350.475 223.749,347.642 227.5,341.5 Z"/></g>
<g><path style="opacity:1" fill="#838abf" d="M 518.5,383.5 C 523.275,367.733 527.108,351.733 530,335.5C 529.121,352.284 525.287,368.284 518.5,383.5 Z"/></g>
<g><path style="opacity:1" fill="#90e1ef" d="M 435.5,363.5 C 435.389,364.117 435.056,364.617 434.5,365C 430.848,365.499 427.182,365.665 423.5,365.5C 422.167,365.5 420.833,365.5 419.5,365.5C 406.167,365.5 392.833,365.5 379.5,365.5C 378.167,365.5 376.833,365.5 375.5,365.5C 371.629,365.815 367.962,365.482 364.5,364.5C 388.212,364.813 411.878,364.48 435.5,363.5 Z"/></g>
<g><path style="opacity:1" fill="#53c8ec" d="M 191.5,366.5 C 204.833,366.5 218.167,366.5 231.5,366.5C 231.5,367.5 231.5,368.5 231.5,369.5C 218.167,369.5 204.833,369.5 191.5,369.5C 191.5,368.5 191.5,367.5 191.5,366.5 Z"/></g>
<g><path style="opacity:1" fill="#33c6e7" d="M 284.5,365.5 C 297.517,365.168 310.517,365.501 323.5,366.5C 323.291,367.086 322.957,367.586 322.5,368C 309.838,368.5 297.171,368.667 284.5,368.5C 284.5,367.5 284.5,366.5 284.5,365.5 Z"/></g>
<g><path style="opacity:1" fill="#32c6e7" d="M 379.5,365.5 C 392.833,365.5 406.167,365.5 419.5,365.5C 419.5,366.5 419.5,367.5 419.5,368.5C 406.167,368.5 392.833,368.5 379.5,368.5C 379.5,367.5 379.5,366.5 379.5,365.5 Z"/></g>
<g><path style="opacity:1" fill="#8fd3ed" d="M 379.5,368.5 C 392.833,368.5 406.167,368.5 419.5,368.5C 419.5,368.833 419.5,369.167 419.5,369.5C 406.087,369.186 392.754,369.519 379.5,370.5C 379.5,369.833 379.5,369.167 379.5,368.5 Z"/></g>
<g><path style="opacity:1" fill="#7d86b3" d="M 100.5,351.5 C 104.154,363.117 107.654,374.784 111,386.5C 105.993,375.309 102.493,363.643 100.5,351.5 Z"/></g>
<g><path style="opacity:1" fill="#c5dbf2" d="M 235.5,368.5 C 239.5,368.5 243.5,368.5 247.5,368.5C 244.038,369.482 240.371,369.815 236.5,369.5C 236.244,376.224 236.577,382.891 237.5,389.5C 236.883,389.389 236.383,389.056 236,388.5C 235.5,381.842 235.334,375.175 235.5,368.5 Z"/></g>
<g><path style="opacity:1" fill="#7f83ae" d="M 518.5,383.5 C 518.585,386.649 517.585,389.316 515.5,391.5C 515.733,388.458 516.733,385.792 518.5,383.5 Z"/></g>
<g><path style="opacity:1" fill="#3c4c9d" d="M 284.5,365.5 C 284.5,366.5 284.5,367.5 284.5,368.5C 284.5,368.833 284.5,369.167 284.5,369.5C 284.334,375.842 284.5,382.175 285,388.5C 289.333,392.833 293.667,397.167 298,401.5C 298.667,402.833 298.667,404.167 298,405.5C 293.057,409.399 288.557,413.733 284.5,418.5C 281.877,419.695 279.544,419.195 277.5,417C 272.97,412.97 268.97,408.47 265.5,403.5C 269.453,397.879 274.12,392.879 279.5,388.5C 280.492,381.018 280.825,373.352 280.5,365.5C 281.833,365.5 283.167,365.5 284.5,365.5 Z"/></g>
<g><path style="opacity:1" fill="#3a4a9b" d="M 419.5,365.5 C 420.833,365.5 422.167,365.5 423.5,365.5C 423.175,373.352 423.508,381.018 424.5,388.5C 429.203,393.534 433.869,398.534 438.5,403.5C 433.586,408.753 428.586,414.086 423.5,419.5C 422.635,420.583 421.635,420.749 420.5,420C 415.667,415.167 410.833,410.333 406,405.5C 405.333,404.167 405.333,402.833 406,401.5C 410.333,397.167 414.667,392.833 419,388.5C 419.5,382.175 419.666,375.842 419.5,369.5C 419.5,369.167 419.5,368.833 419.5,368.5C 419.5,367.5 419.5,366.5 419.5,365.5 Z"/></g>
<g><path style="opacity:1" fill="#f7f8f9" d="M 280.5,392.5 C 285.668,394.986 290.001,398.653 293.5,403.5C 290.136,407.699 286.302,411.365 282,414.5C 277.698,411.365 273.864,407.699 270.5,403.5C 273.855,399.813 277.189,396.147 280.5,392.5 Z"/></g>
<g><path style="opacity:1" fill="#f5f6f9" d="M 420.5,391.5 C 425.419,394.748 429.753,398.748 433.5,403.5C 429.833,407.833 425.833,411.833 421.5,415.5C 417.386,411.962 413.719,407.962 410.5,403.5C 413.909,399.437 417.242,395.437 420.5,391.5 Z"/></g>
<g><path style="opacity:1" fill="#32469a" d="M 328.5,369.5 C 328.334,375.842 328.5,382.175 329,388.5C 334.015,393.348 338.848,398.348 343.5,403.5C 338.167,409.5 332.5,415.167 326.5,420.5C 320.473,415.14 314.806,409.473 309.5,403.5C 314.123,398.508 318.789,393.508 323.5,388.5C 324.496,382.202 324.83,375.868 324.5,369.5C 325.696,364.243 327.03,364.243 328.5,369.5 Z"/></g>
<g><path style="opacity:1" fill="#f2f4f7" d="M 325.5,391.5 C 329.813,395.387 334.146,399.387 338.5,403.5C 334.194,407.14 330.194,411.14 326.5,415.5C 322.151,412.15 318.485,408.15 315.5,403.5C 318.825,399.507 322.158,395.507 325.5,391.5 Z"/></g>
<g><path style="opacity:1" fill="#324699" d="M 235.5,368.5 C 235.334,375.175 235.5,381.842 236,388.5C 236.383,389.056 236.883,389.389 237.5,389.5C 241.812,394.146 246.145,398.813 250.5,403.5C 245.682,408.819 240.682,413.985 235.5,419C 234.167,419.667 232.833,419.667 231.5,419C 226.291,413.959 221.291,408.792 216.5,403.5C 221.152,398.348 225.985,393.348 231,388.5C 231.5,382.175 231.666,375.842 231.5,369.5C 231.5,368.5 231.5,367.5 231.5,366.5C 232.568,365.566 233.901,365.232 235.5,365.5C 235.5,366.5 235.5,367.5 235.5,368.5 Z"/></g>
<g><path style="opacity:1" fill="#f4f5f8" d="M 232.5,391.5 C 237.419,394.748 241.753,398.748 245.5,403.5C 242.14,408.023 237.973,411.69 233,414.5C 230.028,411.2 226.695,408.2 223,405.5C 222.833,404.833 222.667,404.167 222.5,403.5C 225.418,399.24 228.752,395.24 232.5,391.5 Z"/></g>
<g><path style="opacity:1" fill="#344799" d="M 375.5,365.5 C 376.833,365.5 378.167,365.5 379.5,365.5C 379.5,366.5 379.5,367.5 379.5,368.5C 379.5,369.167 379.5,369.833 379.5,370.5C 379.334,376.509 379.501,382.509 380,388.5C 385.015,393.348 389.848,398.348 394.5,403.5C 389.137,409.696 383.304,415.363 377,420.5C 371.34,415.007 365.84,409.34 360.5,403.5C 365.096,398.401 369.93,393.401 375,388.5C 375.5,382.175 375.666,375.842 375.5,369.5C 375.5,368.167 375.5,366.833 375.5,365.5 Z"/></g>
<g><path style="opacity:1" fill="#f3f4f8" d="M 376.5,391.5 C 381.661,394.496 385.661,398.662 388.5,404C 385.626,408.54 381.793,412.04 377,414.5C 373.313,410.646 369.48,406.979 365.5,403.5C 369.189,399.48 372.855,395.48 376.5,391.5 Z"/></g>
<g><path style="opacity:1" fill="#7c81ae" d="M 515.5,391.5 C 512.068,402.365 507.068,412.365 500.5,421.5C 505.519,411.461 510.519,401.461 515.5,391.5 Z"/></g>
<g><path style="opacity:1" fill="#3b4b9c" d="M 191.5,366.5 C 191.5,367.5 191.5,368.5 191.5,369.5C 191.334,376.175 191.5,382.842 192,389.5C 196.686,393.188 201.019,397.188 205,401.5C 205.167,402.167 205.333,402.833 205.5,403.5C 201.054,409.449 196.054,414.949 190.5,420C 189.5,420.667 188.5,420.667 187.5,420C 181.916,414.921 176.916,409.421 172.5,403.5C 176.453,397.879 181.12,392.879 186.5,388.5C 187.492,381.018 187.825,373.352 187.5,365.5C 189.099,365.232 190.432,365.566 191.5,366.5 Z"/></g>
<g><path style="opacity:1" fill="#f5f6f8" d="M 187.5,391.5 C 192.378,394.703 196.711,398.703 200.5,403.5C 197.136,407.699 193.302,411.365 189,414.5C 184.698,411.365 180.864,407.699 177.5,403.5C 181.256,399.753 184.59,395.753 187.5,391.5 Z"/></g>
<g><path style="opacity:1" fill="#42c3e4" d="M 447.5,421.5 C 454.486,421.331 456.153,424.164 452.5,430C 445.419,430.508 443.752,427.675 447.5,421.5 Z"/></g>
<g><path style="opacity:1" fill="#888bbb" d="M 500.5,421.5 C 497.654,427.855 494.154,433.855 490,439.5C 489.282,440.451 488.449,440.617 487.5,440C 491.696,433.654 496.03,427.487 500.5,421.5 Z"/></g>
<g><path style="opacity:1" fill="#46c6e8" d="M 474.5,449.5 C 482.612,449.062 484.279,451.895 479.5,458C 472.416,458.475 470.749,455.642 474.5,449.5 Z"/></g>
<g><path style="opacity:1" fill="#4d59a2" d="M 330.5,497.5 C 318.85,498.269 307.183,498.602 295.5,498.5C 226.044,493.035 173.21,460.702 137,401.5C 124.39,378.419 116.39,353.752 113,327.5C 112.169,319.812 112.335,312.145 113.5,304.5C 116.679,384.105 153.346,442.272 223.5,479C 267.027,498.35 311.861,501.85 358,489.5C 359.608,489.974 359.774,490.641 358.5,491.5C 349.354,494.331 340.021,496.331 330.5,497.5 Z"/></g>
<g><path style="opacity:1" fill="#4ec8e7" d="M 98.5,213.5 C 98.9234,214.265 99.2568,215.098 99.5,216C 94.6898,226.125 90.8565,236.625 88,247.5C 70.8286,321.336 85.162,388.003 131,447.5C 193.108,518.257 270.275,543.257 362.5,522.5C 372.558,519.458 382.558,516.458 392.5,513.5C 392.5,514.833 392.5,516.167 392.5,517.5C 319.031,545.186 248.698,539.019 181.5,499C 113.647,451.7 78.6467,386.534 76.5,303.5C 76.8053,273.296 82.6386,244.296 94,216.5C 94.9078,214.561 96.4078,213.561 98.5,213.5 Z"/></g>
<g><path style="opacity:1" fill="#314599" d="M 209.5,484.5 C 214.194,483.7 217.694,485.367 220,489.5C 220.809,498.849 216.642,502.182 207.5,499.5C 203.078,493.71 203.745,488.71 209.5,484.5 Z"/></g>
<g><path style="opacity:1" fill="#384a9c" d="M 353.5,512.5 C 310.135,521.743 267.801,518.576 226.5,503C 223.713,501.093 223.88,499.593 227,498.5C 260.68,511.814 295.513,516.314 331.5,512C 413.144,498.674 469.644,453.841 501,377.5C 523.83,310.402 515.996,247.402 477.5,188.5C 472.146,180.167 466.479,172.167 460.5,164.5C 464.147,164.622 466.981,166.288 469,169.5C 515.698,229.328 528.698,295.995 508,369.5C 481.276,444.062 429.776,491.729 353.5,512.5 Z"/></g>
<g><path style="opacity:1" fill="#becae6" d="M 330.5,497.5 C 323.73,499.001 316.73,499.667 309.5,499.5C 304.654,499.499 299.988,499.166 295.5,498.5C 307.183,498.602 318.85,498.269 330.5,497.5 Z"/></g>
</svg>
